<svg fill="none" height="513" viewBox="0 0 512 513" width="512" xmlns="http://www.w3.org/2000/svg"><g fill="#DD922D"><path clip-rule="evenodd" d="m509.697 365.815-147.216 146.294c-.195.08-211.998-.379-212.193-.461-.195-.081-149.636992-149.881-149.717135-150.077-.080144-.194.379462-211.586.461245-211.78.08177-.194 150.17389-149.345761 150.36989-149.425749.195-.079987 211.998.380369 212.193.460356l147.968 148.324393h-39.281l-120.377-120.6651c-.173-.0719-188.246-.48-188.419-.4081-.174.0702-133.4503 132.5112-133.5222 132.6842-.072.173-.4809 187.88-.4089 188.053.0703.173 132.7691 133.19 132.9431 133.262.173.072 188.246.48 188.419.408l117.405-116.669z" fill-rule="evenodd"/><path d="m217.201 85.7899v9.3674l22.056 207.0247h39.421l22.058-207.0247v-9.3674zm79.781 327.8691v-74.942h-76.027v74.942z"/></g></svg>